<svg xmlns="http://www.w3.org/2000/svg" xmlns:xlink="http://www.w3.org/1999/xlink" viewBox="0 0 750 599.16"><defs><style>.a,.w{fill:#fff;}.b{fill:none;}.c{clip-path:url(#a);}.d{clip-path:url(#b);}.e{fill:url(#c);}.f{clip-path:url(#d);}.g{mask:url(#e);}.h{opacity:0.9;}.i{fill:url(#f);}.j{fill:#327a96;}.k{clip-path:url(#g);}.l{mask:url(#h);}.m{fill:url(#i);}.n{fill:url(#j);}.o{fill:url(#k);}.p{fill:url(#l);}.q{fill:url(#m);}.r{fill:url(#n);}.s{fill:url(#o);}.t{fill:url(#p);}.u{fill:url(#q);}.v{fill:url(#r);}.w{font-size:17px;stroke:#fff;stroke-miterlimit:10;stroke-width:0.15px;font-family:MHeiPRC-Medium, MHei PRC;}.x{fill:url(#s);}.y{fill:url(#t);}.z{fill:url(#u);}.aa{fill:url(#v);}.ab{fill:url(#w);}.ac{fill:url(#x);}.ad{fill:url(#y);}.ae{fill:url(#z);}</style><clipPath id="a"><rect class="b" x="1020.92" y="-1510.81" width="752.48" height="1337.67"/></clipPath><clipPath id="b"><rect class="b" x="196.75" y="-686.64" width="2403.06" height="754.72" transform="translate(1707.56 1089) rotate(-90)"/></clipPath><linearGradient id="c" x1="-958.46" y1="822.96" x2="1021.18" y2="822.96" gradientTransform="translate(836.27 -676.59) rotate(-90)" gradientUnits="userSpaceOnUse"><stop offset="0" stop-color="#00be94"/><stop offset="0.62" stop-color="#0683ff"/><stop offset="0.68" stop-color="#058bf5"/><stop offset="0.78" stop-color="#049fdb"/><stop offset="0.91" stop-color="#02c0b1"/><stop offset="1" stop-color="#00d990"/></linearGradient><clipPath id="d"><rect class="b" x="779.16" y="-1177.47" width="1236.87" height="659.55" transform="translate(2245.29 549.9) rotate(-90)"/></clipPath><mask id="e" x="669.13" y="-1462.28" width="1107.93" height="1495.05" maskUnits="userSpaceOnUse"/><linearGradient id="f" x1="695.27" y1="-1827.64" x2="1563.29" y2="-1827.64" gradientTransform="translate(3050.73 728.04) rotate(-90)" gradientUnits="userSpaceOnUse"><stop offset="0" stop-color="#1841d9"/><stop offset="0.47" stop-color="#1841d9"/><stop offset="0.65" stop-color="#124be2"/><stop offset="0.95" stop-color="#0365fa"/><stop offset="1" stop-color="#006aff"/></linearGradient><clipPath id="g"><rect class="b" x="60.73" y="-6.33" width="637.93" height="655.47" transform="translate(58.3 701.1) rotate(-90)"/></clipPath><mask id="h" x="-98.27" y="-895.88" width="941.38" height="1914.23" maskUnits="userSpaceOnUse"><rect class="a" x="50.69" y="-39.63" width="654.3" height="637.63" transform="translate(755.67 558.37) rotate(-180)"/></mask><linearGradient id="i" x1="1292.52" y1="1303.52" x2="994.57" y2="1003.94" gradientTransform="matrix(1.07, 0.82, 0.85, -1.15, -1870.06, 794.54)" gradientUnits="userSpaceOnUse"><stop offset="0" stop-color="#003d96"/><stop offset="0.32" stop-color="#003d8a"/><stop offset="0.62" stop-color="#003d84"/><stop offset="0.73" stop-color="#01468e"/><stop offset="0.91" stop-color="#025fa8"/><stop offset="1" stop-color="#036eb7"/></linearGradient><linearGradient id="j" x1="-2681.48" y1="884.31" x2="-2221.4" y2="884.31" gradientTransform="translate(-1838.36 1366.23) rotate(180)" xlink:href="#f"/><linearGradient id="k" x1="-2488.83" y1="1252.31" x2="-1638.41" y2="1252.31" gradientTransform="matrix(-1.07, 0.03, 0.03, -1.01, -1887.3, 1389.08)" gradientUnits="userSpaceOnUse"><stop offset="0" stop-color="#1841d9"/><stop offset="0.28" stop-color="#1841d9"/><stop offset="0.52" stop-color="#124be2"/><stop offset="0.93" stop-color="#0365fa"/><stop offset="1" stop-color="#006aff"/></linearGradient><linearGradient id="l" x1="-2358.61" y1="1502.92" x2="-1798.84" y2="1502.92" gradientTransform="translate(-1838.36 1366.23) rotate(180)" gradientUnits="userSpaceOnUse"><stop offset="0" stop-color="#1841d9"/><stop offset="0.48" stop-color="#1841d9"/><stop offset="0.66" stop-color="#124be2"/><stop offset="0.95" stop-color="#0365fa"/><stop offset="1" stop-color="#006aff"/></linearGradient><linearGradient id="m" x1="-2546.82" y1="758.85" x2="-2546.82" y2="1361.63" gradientTransform="translate(3255.28 -763.58)" gradientUnits="userSpaceOnUse"><stop offset="0" stop-color="#72eddb"/><stop offset="1" stop-color="#39b8ff"/></linearGradient><linearGradient id="n" x1="-1888.84" y1="756.88" x2="-1888.84" y2="1370.45" gradientTransform="translate(1939.31 -770.59)" gradientUnits="userSpaceOnUse"><stop offset="0" stop-color="#39b8ff"/><stop offset="1" stop-color="#72eddb"/></linearGradient><linearGradient id="o" x1="-2556.4" y1="779.24" x2="-1878.71" y2="779.24" gradientTransform="translate(2596.75 -192.26)" xlink:href="#n"/><linearGradient id="p" x1="-2559.46" y1="1355.87" x2="-1876.39" y2="1355.87" gradientTransform="translate(2596.06 -1345.52)" xlink:href="#m"/><linearGradient id="q" x1="19.61" y1="136.28" x2="75.88" y2="136.28" gradientUnits="userSpaceOnUse"><stop offset="0" stop-color="#b6f5ff"/><stop offset="1" stop-color="#e2ffbf"/></linearGradient><linearGradient id="r" x1="19.61" y1="172.59" x2="75.88" y2="172.59" xlink:href="#q"/><linearGradient id="s" x1="85.3" y1="84.32" x2="97.84" y2="84.32" gradientUnits="userSpaceOnUse"><stop offset="0" stop-color="#c2f2fc"/><stop offset="1" stop-color="#e6fdc4"/></linearGradient><linearGradient id="t" x1="85.61" y1="139.21" x2="98.15" y2="139.21" xlink:href="#s"/><linearGradient id="u" x1="85.58" y1="195.89" x2="98.12" y2="195.89" xlink:href="#s"/><linearGradient id="v" x1="85.62" y1="251.05" x2="98.17" y2="251.05" xlink:href="#s"/><linearGradient id="w" x1="85.68" y1="337.83" x2="98.23" y2="337.83" xlink:href="#s"/><linearGradient id="x" x1="85.8" y1="394.76" x2="98.34" y2="394.76" xlink:href="#s"/><linearGradient id="y" x1="85.43" y1="447.84" x2="97.97" y2="447.84" xlink:href="#s"/><linearGradient id="z" x1="85.68" y1="503.18" x2="98.23" y2="503.18" xlink:href="#s"/></defs><title>yiti</title><g class="c"><g class="d"><polygon class="e" points="2629.71 -1187.99 1880.58 281.88 688.74 -227.9 1437.88 -1697.77 2629.71 -1187.99"/></g></g><g class="f"><g class="g"><g class="h"><polygon class="i" points="1777.05 -203.99 1425.81 -835.25 669.13 -598.5 1020.37 32.77 1777.05 -203.99"/></g></g></g><path class="j" d="M19.58,147.46,40.84,166.4v-19Z"/><path class="j" d="M19.65,183.75l21.26,18.94v-19Z"/><g class="k"><g class="l"><g class="h"><polygon class="m" points="628.85 231.13 367.56 -108.19 220.41 564.35 481.69 903.68 628.85 231.13"/><polygon class="n" points="717.63 -54.51 383.04 285.62 508.52 1018.35 843.12 678.22 717.63 -54.51"/><polygon class="o" points="578.39 -895.88 -98.27 -126.19 119.16 1008.38 795.82 238.68 578.39 -895.88"/><polygon class="p" points="440.77 -617.21 -39.52 -70.87 39.96 343.84 520.25 -202.5 440.77 -617.21"/></g></g></g><rect class="q" x="698.94" y="10.11" width="19.03" height="582.44" transform="translate(1416.91 602.65) rotate(-180)"/><rect class="r" x="40.35" y="1.39" width="20.25" height="592.87" transform="translate(100.95 595.64) rotate(-180)"/><rect class="s" x="40.35" y="574.81" width="677.69" height="24.35" transform="translate(758.39 1173.97) rotate(-180)"/><rect class="t" x="40.26" width="677.18" height="20.71" transform="translate(757.7 20.71) rotate(-180)"/><rect class="u" x="19.61" y="125.1" width="56.27" height="22.36"/><rect class="v" x="19.61" y="161.4" width="56.27" height="22.36"/><text class="w" transform="translate(106.69 90.96)"><tspan xml:space="preserve">【开源协同下的安全新机遇】 TEG安全平台部  lakehu(胡珀)</tspan></text><text class="w" transform="translate(106.59 146.59)"><tspan xml:space="preserve">【浅谈运维安全运营体系建设】 IEG技术运营部  riverzheng(郑江林)</tspan></text><text class="w" transform="translate(106.59 202.22)"><tspan xml:space="preserve">【IT安全的红与蓝】TEG企业IT部  geminicai(蔡晨)</tspan></text><text class="w" transform="translate(106.58 257.09)">【Binary Analysis Platform - Java and Dalvik virtual machines】 <tspan x="0" y="31.78" xml:space="preserve">  CSIG科恩实验室  akochkov(ANTON KOCHKOV)</tspan></text><text class="w" transform="translate(106.08 344.76)"><tspan xml:space="preserve">【企业蓝军以攻促防】TEG安全平台部  wqzhong(钟武强)</tspan></text><text class="w" transform="translate(107.22 399.89)"><tspan xml:space="preserve">【网络安全技术人员眼中的法律漏洞】S1数据安全部  blshi(史波良)</tspan></text><text class="w" transform="translate(106.84 453.62)"><tspan xml:space="preserve">【PCG web漏洞收敛的探索】PCG技术运营部  ruilin(林锐林)</tspan></text><text class="w" transform="translate(106.97 508.11)"><tspan xml:space="preserve">【浅谈金融业务主机入侵防御体系建设】CDG平台研发部  fowlerzhu(朱峰)</tspan></text><circle class="x" cx="91.57" cy="84.32" r="6.27"/><circle class="y" cx="91.88" cy="139.21" r="6.27"/><circle class="z" cx="91.85" cy="195.89" r="6.27"/><circle class="aa" cx="91.89" cy="251.05" r="6.27"/><circle class="ab" cx="91.95" cy="337.83" r="6.27"/><circle class="ac" cx="92.07" cy="394.76" r="6.27"/><circle class="ad" cx="91.7" cy="447.84" r="6.27"/><circle class="ae" cx="91.95" cy="503.18" r="6.27"/></svg>