<svg xmlns="http://www.w3.org/2000/svg" xmlns:xlink="http://www.w3.org/1999/xlink" viewBox="98 880 748 846.03">
    <defs>
        <style>
            .a,.q{fill:#fff;}.b,.s{fill:none;}.c{fill:#327a96;}.d{clip-path:url(#a);}.e{mask:url(#b);}.f{opacity:0.9;}.g{fill:url(#c);}.h{fill:url(#d);}.i{fill:url(#e);}.j{fill:url(#f);}.k{fill:url(#g);}.l{fill:url(#h);}.m{fill:url(#i);}.n{fill:url(#j);}.o{fill:url(#k);}.p{fill:url(#l);}.q{font-size:16px;stroke:#fff;stroke-width:0.15px;font-family:MHeiPRC-Medium,
            MHei PRC;}.q,.s{stroke-miterlimit:10;}.r{fill:#c5f7e3;}.s{stroke:#d1f9d1;stroke-width:3px;}.t{fill:#7efae4;}
        </style>
        <clipPath id="a">
            <rect class="b" x="142.04" y="954.28" width="671.86" height="655.47"
                  transform="translate(-804.05 1759.98) rotate(-90)"/>
        </clipPath>
        <mask id="b" x="0" y="0" width="941.38" height="2016.03" maskUnits="userSpaceOnUse">
            <rect class="a" x="148.95" y="901.79" width="654.3" height="671.54"
                  transform="translate(952.21 2475.11) rotate(-180)"/>
        </mask>
        <linearGradient id="c" x1="740.24" y1="4575.44" x2="440.89" y2="4274.47"
                        gradientTransform="matrix(1.07, 0.82, 0.85, -1.15, -3952.62, 5966.14)"
                        gradientUnits="userSpaceOnUse">
            <stop offset="0" stop-color="#003d96"/>
            <stop offset="0.32" stop-color="#003d8a"/>
            <stop offset="0.62" stop-color="#003d84"/>
            <stop offset="0.73" stop-color="#01468e"/>
            <stop offset="0.91" stop-color="#025fa8"/>
            <stop offset="1" stop-color="#036eb7"/>
        </linearGradient>
        <linearGradient id="d" x1="-2583.21" y1="4808.31" x2="-2123.13" y2="4808.31"
                        gradientTransform="translate(-1641.83 6259.38) rotate(180)" gradientUnits="userSpaceOnUse">
            <stop offset="0" stop-color="#1841d9"/>
            <stop offset="0.47" stop-color="#1841d9"/>
            <stop offset="0.65" stop-color="#124be2"/>
            <stop offset="0.95" stop-color="#0365fa"/>
            <stop offset="1" stop-color="#006aff"/>
        </linearGradient>
        <linearGradient id="e" x1="-2348.58" y1="5179.22" x2="-1497.61" y2="5179.22"
                        gradientTransform="matrix(-1.07, 0.03, 0.03, -1.01, -1758.75, 6313.97)"
                        gradientUnits="userSpaceOnUse">
            <stop offset="0" stop-color="#1841d9"/>
            <stop offset="0.28" stop-color="#1841d9"/>
            <stop offset="0.52" stop-color="#124be2"/>
            <stop offset="0.93" stop-color="#0365fa"/>
            <stop offset="1" stop-color="#006aff"/>
        </linearGradient>
        <linearGradient id="f" x1="-2260.35" y1="5459.81" x2="-1700.58" y2="5459.81"
                        gradientTransform="translate(-1641.83 6259.38) rotate(180)" gradientUnits="userSpaceOnUse">
            <stop offset="0" stop-color="#1841d9"/>
            <stop offset="0.48" stop-color="#1841d9"/>
            <stop offset="0.66" stop-color="#124be2"/>
            <stop offset="0.95" stop-color="#0365fa"/>
            <stop offset="1" stop-color="#006aff"/>
        </linearGradient>
        <linearGradient id="g" x1="-2448.55" y1="4662.44" x2="-2448.55" y2="5310.97"
                        gradientTransform="translate(3255.28 -3724.06)" gradientUnits="userSpaceOnUse">
            <stop offset="0" stop-color="#72eddb"/>
            <stop offset="1" stop-color="#39b8ff"/>
        </linearGradient>
        <linearGradient id="h" x1="-1790.57" y1="4658.14" x2="-1790.57" y2="5320.47"
                        gradientTransform="translate(1939.31 -3729.47)" gradientUnits="userSpaceOnUse">
            <stop offset="0" stop-color="#39b8ff"/>
            <stop offset="1" stop-color="#72eddb"/>
        </linearGradient>
        <linearGradient id="i" x1="-2458.13" y1="4688.82" x2="-1780.45" y2="4688.82"
                        gradientTransform="translate(2596.75 -3118.26)" xlink:href="#h"/>
        <linearGradient id="j" x1="-2461.2" y1="5305.45" x2="-1778.12" y2="5305.45"
                        gradientTransform="translate(2596.06 -4351.52)" xlink:href="#g"/>
        <linearGradient id="k" x1="117.88" y1="1079.86" x2="174.15" y2="1079.86" gradientUnits="userSpaceOnUse">
            <stop offset="0" stop-color="#b6f5ff"/>
            <stop offset="1" stop-color="#e2ffbf"/>
        </linearGradient>
        <linearGradient id="l" x1="117.88" y1="1116.16" x2="174.15" y2="1116.16" xlink:href="#k"/>
    </defs>
    <title>峰会议题</title>
    <path class="c" d="M117.85,1091,139.11,1110v-19Z"/>
    <path class="c" d="M117.91,1127.33l21.26,18.94v-19Z"/>
    <g class="d">
        <g class="e">
            <g class="f">
                <polygon class="g" points="727.11 1186.95 465.83 829.58 318.68 1537.89 579.96 1895.26 727.11 1186.95"/>
                <polygon class="h" points="815.9 886.12 481.3 1244.33 606.79 2016.03 941.38 1657.81 815.9 886.12"/>
                <polygon class="i" points="676.65 0 0 810.63 217.43 2005.53 894.08 1194.9 676.65 0"/>
                <polygon class="j" points="539.04 293.49 58.75 868.88 138.22 1305.65 618.52 730.26 539.04 293.49"/>
            </g>
        </g>
    </g>
    <rect class="k" x="797.21" y="954.34" width="19.03" height="626.64"
          transform="translate(1613.45 2535.33) rotate(-180)"/>
    <rect class="l" x="138.62" y="944.96" width="20.25" height="639.99"
          transform="translate(297.48 2529.91) rotate(-180)"/>
    <rect class="m" x="138.62" y="1558.39" width="677.69" height="24.35"
          transform="translate(954.92 3141.13) rotate(-180)"/>
    <rect class="n" x="138.53" y="943.58" width="677.18" height="20.71"
          transform="translate(954.23 1907.87) rotate(-180)"/>
    <rect class="o" x="117.88" y="1068.67" width="56.27" height="22.36"/>
    <rect class="p" x="117.88" y="1104.98" width="56.27" height="22.36"/>
    <text class="q" transform="translate(244.69 1036.52)">
        <tspan xml:space="preserve">【开源协同下的安全新机遇】 TEG安全平台部  lakehu(胡珀)</tspan>
    </text>
    <text class="q" transform="translate(243.61 1101.11)">
        <tspan xml:space="preserve">【浅谈运维安全运营体系建设】 IEG技术运营部  riverzheng(郑江林)</tspan>
    </text>
    <text class="q" transform="translate(243.61 1165.69)">
        <tspan xml:space="preserve">【IT安全的红与蓝】TEG企业IT部  geminicai(蔡晨)</tspan>
    </text>
    <text class="q" transform="translate(245.6 1229.61)">
        【Binary Analysis Platform - Java and Dalvik virtual machines】
        <tspan x="0" y="27.88" xml:space="preserve">  CSIG科恩实验室  akochkov(ANTON KOCHKOV)</tspan>
    </text>
    <text class="q" transform="translate(245.15 1293.32)">
        <tspan xml:space="preserve">【PCG web漏洞收敛的探索】PCG技术运营部  ruilin(林锐林)</tspan>
    </text>
    <text class="q" transform="translate(245.15 1357.46)">
        <tspan xml:space="preserve">【网络安全技术人员眼中的法律漏洞】S1数据安全部  blshi(史波良)</tspan>
    </text>
    <text class="q" transform="translate(245.82 1420.39)">
        <tspan xml:space="preserve">【浅谈金融业务主机入侵防御体系建设】CDG平台研发部  fowlerzhu(朱峰)</tspan>
    </text>
    <text class="q" transform="translate(244.93 1483.97)">
        <tspan xml:space="preserve">【企业蓝军以攻促防】TEG安全平台部  wqzhong(钟武强)</tspan>
    </text>
    <circle class="r" cx="227.95" cy="1029.15" r="8.63"/>
    <circle class="r" cx="228.39" cy="1093.3" r="8.63"/>
    <path class="s" d="M228.32,1041.91v37.71"/>
    <path class="s" d="M228.32,1107.93v36.17"/>
    <circle class="r" cx="228.34" cy="1158.95" r="8.63"/>
    <path class="s" d="M228.26,1174.91v36.17"/>
    <circle class="r" cx="228.28" cy="1224.61" r="8.63"/>
    <path class="s" d="M228.21,1236.14v36.17"/>
    <circle class="r" cx="228.23" cy="1285.84" r="8.63"/>
    <path class="s" d="M228.16,1300v36.17"/>
    <circle class="r" cx="228.18" cy="1349.72" r="8.63"/>
    <path class="s" d="M228.11,1363v36.17"/>
    <circle class="r" cx="228.13" cy="1413.16" r="8.63"/>
    <path class="s" d="M228.06,1428.68v36.17"/>
    <circle class="r" cx="228.08" cy="1477.04" r="8.63"/>
    <path class="t" d="M202.79,1022.71h3.33L202.55,1043h-3.33l2.93-16.74a55.94,55.94,0,0,1-4.86,2.82l-1.42-2.63Z"/>
    <path class="t"
          d="M203.71,1082a12.87,12.87,0,0,1,2,.13,2.82,2.82,0,0,1,1.38.58,1.91,1.91,0,0,1,.54,1.54,18,18,0,0,1-.35,2.9l-.48,2.71a4.11,4.11,0,0,1-.79,2.1,5.1,5.1,0,0,1-2.16,1l-4.38,1.24a9,9,0,0,0-1.69.61,1.19,1.19,0,0,0-.59.66,7.07,7.07,0,0,0-.24,1l-.48,2.87h9.13l-1.24,3H192.64l1-6a9.49,9.49,0,0,1,.78-2.77,2.89,2.89,0,0,1,1.11-1.06,20,20,0,0,1,3.24-1.11l3-.86a6.06,6.06,0,0,0,1.28-.5,1.59,1.59,0,0,0,.6-1.17l.35-2a11.62,11.62,0,0,0,.16-1.16.73.73,0,0,0-.25-.59,3.21,3.21,0,0,0-1.57-.21h-6.18l-.54-3Z"/>
    <path class="t"
          d="M201.38,1150.35a17.11,17.11,0,0,1,3,.2,3.13,3.13,0,0,1,1.69.81,2.71,2.71,0,0,1,.61,2,15.42,15.42,0,0,1-.21,2.31l-.24,1.42a3.44,3.44,0,0,1-2.9,3,3.31,3.31,0,0,1,1.76.9,2.39,2.39,0,0,1,.58,1.68c0,.12,0,.28,0,.47s-.11.8-.27,1.84l-.27,1.58a5,5,0,0,1-1.83,3.36,7,7,0,0,1-3.95.83h-5.83l-.51-2.87h6.15a5,5,0,0,0,1.38-.18,1.54,1.54,0,0,0,.93-.71,4.83,4.83,0,0,0,.51-1.58l.19-1a10.14,10.14,0,0,0,.24-1.75.9.9,0,0,0-.34-.77,3.69,3.69,0,0,0-1.79-.25H197l-.48-2.85h3.6a3.82,3.82,0,0,0,2-.39,2.24,2.24,0,0,0,.75-1.54l.19-1.1a8.17,8.17,0,0,0,.13-1.24,1.12,1.12,0,0,0-.34-.89,4.2,4.2,0,0,0-2.11-.3h-4.92l-.51-2.87Z"/>
    <path class="t"
          d="M207.65,1225.26l-1.18,2.88h-1.93l-1,5.75h-3.28l1-5.75H192l.4-2.45,7.23-12.14h3.57l-7.15,11.71h5.67l1.16-6.61h3.28l-1.15,6.61Z"/>
    <path class="t"
          d="M200.68,1282.82a11.93,11.93,0,0,1,2.2.19,2.35,2.35,0,0,1,1.48.81,2.88,2.88,0,0,1,.48,1.8,19.79,19.79,0,0,1-.38,3.28l-.43,2.39a5,5,0,0,1-1.8,3.36,7.16,7.16,0,0,1-3.95.83h-5.94l-.48-2.85h6.21a2.9,2.9,0,0,0,2-.52,3.83,3.83,0,0,0,.79-2l.3-1.56a9.21,9.21,0,0,0,.21-1.72.94.94,0,0,0-.34-.78,3.45,3.45,0,0,0-1.76-.27h-6.15l1.85-10.66h10.85l-1.18,2.87h-7.23l-.83,4.81Z"/>
    <path class="t"
          d="M201,1348.25a21.4,21.4,0,0,1,3,.16,3.13,3.13,0,0,1,1.64.67,2.24,2.24,0,0,1,.58,1.75,19,19,0,0,1-.38,3l-.51,2.93a5.12,5.12,0,0,1-.87,2.27,3,3,0,0,1-1.67,1,15.12,15.12,0,0,1-3.37.27h-1.56a7.17,7.17,0,0,1-4.1-.9,3.57,3.57,0,0,1-1.25-3.1,19.1,19.1,0,0,1,.38-3.3l1.42-8a10.71,10.71,0,0,1,.81-2.81,4,4,0,0,1,1.34-1.63,4.57,4.57,0,0,1,1.41-.59,10.37,10.37,0,0,1,2.4-.21h6.66l-1.26,3h-5.24a4.09,4.09,0,0,0-1.37.2,1.87,1.87,0,0,0-1,.83,8,8,0,0,0-.71,2.48l-.35,1.93Zm1.59,5.43a10,10,0,0,0,.21-1.64.85.85,0,0,0-.27-.68,3.4,3.4,0,0,0-1.67-.23h-4.27l-.13.75a31.52,31.52,0,0,0-.56,4.06,1.63,1.63,0,0,0,.21.85,1.11,1.11,0,0,0,.82.47,11.84,11.84,0,0,0,1.89.11H200a2.67,2.67,0,0,0,1.61-.35,2.43,2.43,0,0,0,.62-1.48Z"/>
    <path class="t" d="M208.92,1403.18l-.46,2.47-10.24,17.86h-3.84l10.24-17.35H195l1.29-3Z"/>
    <path class="t"
          d="M201.73,1464.86a12.58,12.58,0,0,1,2.74.24,2.71,2.71,0,0,1,2.28,3.06,9.64,9.64,0,0,1-.19,1.83l-.27,1.42a3.48,3.48,0,0,1-2.61,3,2.39,2.39,0,0,1,1.85,2.5,13.42,13.42,0,0,1-.3,2.36L205,1481a4.91,4.91,0,0,1-1.8,3.36,7,7,0,0,1-3.95.83h-3.76a5.3,5.3,0,0,1-3.28-.79,3.05,3.05,0,0,1-1-2.54,9.75,9.75,0,0,1,.19-1.85l.32-1.83a5.8,5.8,0,0,1,1.11-2.74,3.8,3.8,0,0,1,2.22-1.24,2.33,2.33,0,0,1-1.36-.86,2.85,2.85,0,0,1-.44-1.69,9.48,9.48,0,0,1,.16-1.64l.27-1.53a6.54,6.54,0,0,1,.6-1.93,2.83,2.83,0,0,1,1.33-1.25,7.5,7.5,0,0,1,3-.44Zm.11,13.65a5.78,5.78,0,0,0,.11-1.07,1.4,1.4,0,0,0-.36-1,3.45,3.45,0,0,0-2.06-.36H198a3.13,3.13,0,0,0-2.07.48,3.56,3.56,0,0,0-.75,2l-.19,1.07a10.35,10.35,0,0,0-.19,1.5,1.28,1.28,0,0,0,.32.93q.32.34,1.75.34h1.88a5.89,5.89,0,0,0,1.34-.13,1.63,1.63,0,0,0,.9-.54,3.73,3.73,0,0,0,.55-1.61Zm-5.1-7.47-.08.89a1.28,1.28,0,0,0,.32.93,2.59,2.59,0,0,0,1.67.34h1.61a3.08,3.08,0,0,0,1.8-.39,2.47,2.47,0,0,0,.72-1.54l.21-1.1a5.35,5.35,0,0,0,.11-1,1.46,1.46,0,0,0-.32-1q-.32-.36-1.83-.36h-1.67a3.71,3.71,0,0,0-1.5.25q-.56.26-.81,1.63Z"/>
</svg>