<svg xmlns="http://www.w3.org/2000/svg" xmlns:xlink="http://www.w3.org/1999/xlink" viewBox="0 0 677.78 703.64"><defs><style>.a{fill:none;}.b{fill:#327a96;}.c{clip-path:url(#a);}.d{opacity:0.9;}.e{fill:url(#b);}.f{fill:url(#c);}.g{fill:url(#d);}.h{fill:url(#e);}.i{fill:url(#f);}.j{fill:url(#g);}.k{fill:url(#h);}.l{fill:url(#i);}.m{fill:url(#j);}.n{fill:url(#k);}</style><clipPath id="a"><rect class="a" x="11.71" y="2.5" width="646.98" height="701.14"/></clipPath><linearGradient id="b" x1="296.41" y1="-4222.3" x2="-5.74" y2="-3918.52" gradientTransform="matrix(1.07, 0.82, -0.85, 1.15, -3312.44, 5038.29)" gradientUnits="userSpaceOnUse"><stop offset="0" stop-color="#003d96"/><stop offset="0.32" stop-color="#003d8a"/><stop offset="0.62" stop-color="#003d84"/><stop offset="0.73" stop-color="#01468e"/><stop offset="0.91" stop-color="#025fa8"/><stop offset="1" stop-color="#036eb7"/></linearGradient><linearGradient id="c" x1="-2389.73" y1="-4907.21" x2="-1929.65" y2="-4907.21" gradientTransform="matrix(-1, 0, 0, 1, -1586.87, 5467.38)" gradientUnits="userSpaceOnUse"><stop offset="0" stop-color="#1841d9"/><stop offset="0.47" stop-color="#1841d9"/><stop offset="0.65" stop-color="#124be2"/><stop offset="0.95" stop-color="#0365fa"/><stop offset="1" stop-color="#006aff"/></linearGradient><linearGradient id="d" x1="-2141.37" y1="-5343.82" x2="-1289.28" y2="-5343.82" gradientTransform="matrix(-1.07, 0.03, -0.03, 1.01, -1679.2, 5513.59)" gradientUnits="userSpaceOnUse"><stop offset="0" stop-color="#1841d9"/><stop offset="0.28" stop-color="#1841d9"/><stop offset="0.52" stop-color="#124be2"/><stop offset="0.93" stop-color="#0365fa"/><stop offset="1" stop-color="#006aff"/></linearGradient><linearGradient id="e" x1="-2066.87" y1="-5626.67" x2="-1507.1" y2="-5626.67" gradientTransform="matrix(-1, 0, 0, 1, -1586.87, 5467.38)" gradientUnits="userSpaceOnUse"><stop offset="0" stop-color="#1841d9"/><stop offset="0.48" stop-color="#1841d9"/><stop offset="0.66" stop-color="#124be2"/><stop offset="0.95" stop-color="#0365fa"/><stop offset="1" stop-color="#006aff"/></linearGradient><linearGradient id="f" x1="-2255.08" y1="-4770.54" x2="-2255.08" y2="-5462.95" gradientTransform="matrix(-1, 0, 0, 1, -1586.87, 5467.39)" gradientUnits="userSpaceOnUse"><stop offset="0" stop-color="#72eddb"/><stop offset="1" stop-color="#39b8ff"/></linearGradient><linearGradient id="g" x1="-1597.09" y1="-4770.3" x2="-1597.09" y2="-5472.41" gradientTransform="matrix(-1, 0, 0, 1, -1586.87, 5467.38)" gradientUnits="userSpaceOnUse"><stop offset="0" stop-color="#39b8ff"/><stop offset="1" stop-color="#72eddb"/></linearGradient><linearGradient id="h" x1="-2264.65" y1="-4775.4" x2="-1586.96" y2="-4775.4" gradientTransform="matrix(-1, 0, 0, 1, -1586.87, 5467.39)" xlink:href="#g"/><linearGradient id="i" x1="-2267.72" y1="-5457.04" x2="-1584.64" y2="-5457.04" xlink:href="#f"/><linearGradient id="j" x1="-20.64" y1="582.57" x2="35.63" y2="582.57" gradientTransform="matrix(1, 0, 0, -1, 0, 718.84)" gradientUnits="userSpaceOnUse"><stop offset="0" stop-color="#b6f5ff"/><stop offset="1" stop-color="#e2ffbf"/></linearGradient><linearGradient id="k" x1="-20.64" y1="546.26" x2="35.63" y2="546.26" xlink:href="#j"/></defs><title>yiti_bg2</title><path class="b" d="M-20.67,147.42l21.26,19v-19Z"/><path class="b" d="M-20.61,183.75.65,202.69v-19Z"/><g class="c"><g class="d"><polygon class="e" points="588.59 268.5 327.31 -126.15 180.16 656.04 441.44 1050.69 588.59 268.5"/><polygon class="f" points="677.38 -63.72 342.78 331.86 468.27 1184.06 802.86 788.47 677.38 -63.72"/><polygon class="g" points="538.13 -1042.27 -138.52 -147.08 78.91 1172.46 755.56 277.27 538.13 -1042.27"/><polygon class="h" points="400.52 -718.16 -79.77 -82.75 -0.3 399.58 480 -235.83 400.52 -718.16"/></g></g><rect class="i" x="658.69" y="10.77" width="19.03" height="669.04"/><rect class="j" x="0.09" y="1.38" width="20.25" height="678.43"/><rect class="k" x="0.09" y="679.81" width="677.69" height="24.35"/><rect class="l" width="677.18" height="20.71"/><rect class="m" x="-20.64" y="125.09" width="56.27" height="22.36"/><rect class="n" x="-20.64" y="161.4" width="56.27" height="22.36"/></svg>