<svg xmlns="http://www.w3.org/2000/svg" xmlns:xlink="http://www.w3.org/1999/xlink" viewBox="0 0 750 639.16"><defs><style>.a,.y{fill:#fff;}.b{fill:none;}.c{clip-path:url(#a);}.d{fill:url(#b);}.e{clip-path:url(#c);}.f{clip-path:url(#d);}.g{fill:url(#e);}.h{clip-path:url(#f);}.i{mask:url(#g);}.j{opacity:0.9;}.k{fill:url(#h);}.l{fill:#327a96;}.m{clip-path:url(#i);}.n{mask:url(#j);}.o{fill:url(#k);}.p{fill:url(#l);}.q{fill:url(#m);}.r{fill:url(#n);}.s{fill:url(#o);}.t{fill:url(#p);}.u{fill:url(#q);}.v{fill:url(#r);}.w{fill:url(#s);}.x{fill:url(#t);}.y{font-size:17px;stroke:#fff;stroke-miterlimit:10;stroke-width:0.15px;font-family:MHeiPRC-Medium, MHei PRC;}.z{fill:url(#u);}.aa{fill:url(#v);}.ab{fill:url(#w);}.ac{fill:url(#x);}.ad{fill:url(#y);}.ae{fill:url(#z);}.af{fill:url(#aa);}.ag{fill:url(#ab);}.ah{fill:url(#ac);}</style><clipPath id="a"><line class="b" x1="-0.88" y1="-1507.03" x2="750.39" y2="-1507.03"/></clipPath><linearGradient id="b" x1="-1025.53" y1="-201.75" x2="1024" y2="-201.75" gradientTransform="translate(836.27 -676.59) rotate(-90)" gradientUnits="userSpaceOnUse"><stop offset="0" stop-color="#00be94"/><stop offset="0.62" stop-color="#0683ff"/><stop offset="0.68" stop-color="#058bf5"/><stop offset="0.78" stop-color="#049fdb"/><stop offset="0.91" stop-color="#02c0b1"/><stop offset="1" stop-color="#00d990"/></linearGradient><clipPath id="c"><rect class="b" x="1020.92" y="-1510.81" width="752.48" height="1337.67"/></clipPath><clipPath id="d"><rect class="b" x="196.75" y="-686.64" width="2403.06" height="754.72" transform="translate(1707.56 1089) rotate(-90)"/></clipPath><linearGradient id="e" x1="-958.46" y1="822.96" x2="1021.18" y2="822.96" xlink:href="#b"/><clipPath id="f"><rect class="b" x="779.16" y="-1177.47" width="1236.87" height="659.55" transform="translate(2245.29 549.9) rotate(-90)"/></clipPath><mask id="g" x="669.13" y="-1462.28" width="1107.93" height="1495.05" maskUnits="userSpaceOnUse"/><linearGradient id="h" x1="695.27" y1="-1827.64" x2="1563.29" y2="-1827.64" gradientTransform="translate(3050.73 728.04) rotate(-90)" gradientUnits="userSpaceOnUse"><stop offset="0" stop-color="#1841d9"/><stop offset="0.47" stop-color="#1841d9"/><stop offset="0.65" stop-color="#124be2"/><stop offset="0.95" stop-color="#0365fa"/><stop offset="1" stop-color="#006aff"/></linearGradient><clipPath id="i"><rect class="b" x="44.52" y="9.94" width="670.37" height="655.47" transform="translate(42.03 717.37) rotate(-90)"/></clipPath><mask id="j" x="-98.27" y="-941.51" width="941.38" height="2011.56" maskUnits="userSpaceOnUse"><rect class="a" x="50.69" y="-41.71" width="654.3" height="670.05" transform="translate(755.67 586.62) rotate(-180)"/></mask><linearGradient id="k" x1="1301.84" y1="1292.76" x2="1002.56" y2="991.85" gradientTransform="matrix(1.07, 0.82, 0.85, -1.15, -1870.06, 794.54)" gradientUnits="userSpaceOnUse"><stop offset="0" stop-color="#003d96"/><stop offset="0.32" stop-color="#003d8a"/><stop offset="0.62" stop-color="#003d84"/><stop offset="0.73" stop-color="#01468e"/><stop offset="0.91" stop-color="#025fa8"/><stop offset="1" stop-color="#036eb7"/></linearGradient><linearGradient id="l" x1="-2681.48" y1="859.88" x2="-2221.4" y2="859.88" gradientTransform="translate(-1838.36 1366.23) rotate(180)" xlink:href="#h"/><linearGradient id="m" x1="-2489.17" y1="1249.56" x2="-1638.23" y2="1249.56" gradientTransform="matrix(-1.07, 0.03, 0.03, -1.01, -1887.3, 1389.08)" gradientUnits="userSpaceOnUse"><stop offset="0" stop-color="#1841d9"/><stop offset="0.28" stop-color="#1841d9"/><stop offset="0.52" stop-color="#124be2"/><stop offset="0.93" stop-color="#0365fa"/><stop offset="1" stop-color="#006aff"/></linearGradient><linearGradient id="n" x1="-2358.61" y1="1509.94" x2="-1798.84" y2="1509.94" gradientTransform="translate(-1838.36 1366.23) rotate(180)" gradientUnits="userSpaceOnUse"><stop offset="0" stop-color="#1841d9"/><stop offset="0.48" stop-color="#1841d9"/><stop offset="0.66" stop-color="#124be2"/><stop offset="0.95" stop-color="#0365fa"/><stop offset="1" stop-color="#006aff"/></linearGradient><linearGradient id="o" x1="-2546.82" y1="728.04" x2="-2546.82" y2="1361.47" gradientTransform="translate(3255.28 -733.08)" gradientUnits="userSpaceOnUse"><stop offset="0" stop-color="#72eddb"/><stop offset="1" stop-color="#39b8ff"/></linearGradient><linearGradient id="p" x1="-1888.84" y1="725.96" x2="-1888.84" y2="1370.74" gradientTransform="translate(1939.31 -740.44)" gradientUnits="userSpaceOnUse"><stop offset="0" stop-color="#39b8ff"/><stop offset="1" stop-color="#72eddb"/></linearGradient><linearGradient id="q" x1="-2556.34" y1="739.24" x2="-1878.71" y2="739.24" gradientTransform="translate(2596.69 -112.26)" xlink:href="#p"/><linearGradient id="r" x1="-2560.09" y1="1355.87" x2="-1876.38" y2="1355.87" gradientTransform="translate(2596.69 -1345.52)" xlink:href="#o"/><linearGradient id="s" x1="19.61" y1="136.28" x2="75.88" y2="136.28" gradientUnits="userSpaceOnUse"><stop offset="0" stop-color="#b6f5ff"/><stop offset="1" stop-color="#e2ffbf"/></linearGradient><linearGradient id="t" x1="19.61" y1="172.59" x2="75.88" y2="172.59" xlink:href="#s"/><linearGradient id="u" x1="85.3" y1="84.32" x2="97.84" y2="84.32" gradientUnits="userSpaceOnUse"><stop offset="0" stop-color="#c2f2fc"/><stop offset="1" stop-color="#e6fdc4"/></linearGradient><linearGradient id="v" x1="85.61" y1="139.21" x2="98.15" y2="139.21" xlink:href="#u"/><linearGradient id="w" x1="85.77" y1="194.19" x2="98.32" y2="194.19" xlink:href="#u"/><linearGradient id="x" x1="85.58" y1="249.89" x2="98.12" y2="249.89" xlink:href="#u"/><linearGradient id="y" x1="85.62" y1="305.05" x2="98.17" y2="305.05" xlink:href="#u"/><linearGradient id="z" x1="85.68" y1="391.83" x2="98.23" y2="391.83" xlink:href="#u"/><linearGradient id="aa" x1="85.8" y1="448.76" x2="98.34" y2="448.76" xlink:href="#u"/><linearGradient id="ab" x1="85.43" y1="501.84" x2="97.97" y2="501.84" xlink:href="#u"/><linearGradient id="ac" x1="85.68" y1="557.18" x2="98.23" y2="557.18" xlink:href="#u"/></defs><title>峰会报名H5的副本</title><g class="c"><polygon class="d" points="1600.57 -1172.82 854.86 348.94 -331.54 -178.83 414.18 -1700.59 1600.57 -1172.82"/></g><g class="e"><g class="f"><polygon class="g" points="2629.71 -1187.99 1880.58 281.88 688.74 -227.9 1437.88 -1697.77 2629.71 -1187.99"/></g></g><g class="h"><g class="i"><g class="j"><polygon class="k" points="1777.05 -203.99 1425.81 -835.25 669.13 -598.5 1020.37 32.77 1777.05 -203.99"/></g></g></g><path class="l" d="M19.58,147.46,40.84,166.4v-19Z"/><path class="l" d="M19.65,183.75l21.26,18.94v-19Z"/><g class="m"><g class="n"><g class="j"><polygon class="o" points="628.85 242.81 367.56 -113.77 220.41 592.98 481.69 949.55 628.85 242.81"/><polygon class="p" points="717.63 -57.35 383.04 300.07 508.52 1070.06 843.12 712.64 717.63 -57.35"/><polygon class="q" points="578.39 -941.51 -98.27 -132.67 119.16 1059.58 795.82 250.75 578.39 -941.51"/><polygon class="r" points="440.77 -648.66 -39.52 -74.55 39.96 361.25 520.25 -212.87 440.77 -648.66"/></g></g></g><rect class="s" x="698.94" y="10.55" width="19.03" height="612.06" transform="translate(1416.91 633.16) rotate(-180)"/><rect class="t" x="40.35" y="1.39" width="20.25" height="623.01" transform="translate(100.95 625.79) rotate(-180)"/><rect class="u" x="40.35" y="614.81" width="677.62" height="24.35" transform="translate(758.32 1253.97) rotate(-180)"/><rect class="v" x="40.26" width="677.81" height="20.71" transform="translate(758.33 20.71) rotate(-180)"/><rect class="w" x="19.61" y="125.1" width="56.27" height="22.36"/><rect class="x" x="19.61" y="161.4" width="56.27" height="22.36"/><text class="y" transform="translate(106.69 90.96)"><tspan xml:space="preserve">【开源协同下的安全新机遇】 TEG安全平台部  lakehu(胡珀)</tspan></text><text class="y" transform="translate(106.59 146.59)"><tspan xml:space="preserve">【浅谈运维安全运营体系建设】 IEG技术运营部  riverzheng(郑江林)</tspan></text><text class="y" transform="translate(106.59 256.22)"><tspan xml:space="preserve">【IT安全的红与蓝】TEG企业IT部  geminicai(蔡晨)</tspan></text><text class="y" transform="translate(106.96 201.64)"><tspan xml:space="preserve">【安可漫谈】CSIG桌面安全产品部  jsma(马劲松)</tspan></text><text class="y" transform="translate(106.58 311.09)">【Binary Analysis Platform - Java and Dalvik virtual machines】 <tspan x="0" y="31.78" xml:space="preserve">  CSIG科恩实验室  akochkov(ANTON KOCHKOV)</tspan></text><text class="y" transform="translate(106.08 398.76)"><tspan xml:space="preserve">【企业蓝军以攻促防】TEG安全平台部  wqzhong(钟武强)</tspan></text><text class="y" transform="translate(107.22 453.89)"><tspan xml:space="preserve">【网络安全技术人员眼中的法律漏洞】S1数据安全部  blshi(史波良)</tspan></text><text class="y" transform="translate(106.84 507.62)"><tspan xml:space="preserve">【PCG web漏洞收敛的探索】PCG技术运营部  ruilin(林锐林)</tspan></text><text class="y" transform="translate(106.97 562.11)"><tspan xml:space="preserve">【浅谈金融业务主机入侵防御体系建设】CDG平台研发部  fowlerzhu(朱峰)</tspan></text><circle class="z" cx="91.57" cy="84.32" r="6.27"/><circle class="aa" cx="91.88" cy="139.21" r="6.27"/><circle class="ab" cx="92.04" cy="194.19" r="6.27"/><circle class="ac" cx="91.85" cy="249.89" r="6.27"/><circle class="ad" cx="91.89" cy="305.05" r="6.27"/><circle class="ae" cx="91.95" cy="391.83" r="6.27"/><circle class="af" cx="92.07" cy="448.76" r="6.27"/><circle class="ag" cx="91.7" cy="501.84" r="6.27"/><circle class="ah" cx="91.95" cy="557.18" r="6.27"/></svg>